PathFileType	4	(X/Y/Z)	./resultDataOpenSim/trcMotMarkerGrf/sub10/qtm-13-05.trc
DataRate	CameraRate	NumFrames	NumMarkers	Units	OrigDataRate	OrigDataStartFrame	OrigNumFrames
250.000000	250.000000	5	24	m	250.000000	246	491
Frame#	Time	L.Toe.Tip			R.Toe.Tip			L.Ankle.Lat			R.Ankle.Lat			L.Ankle.Med			R.Ankle.Med			L.Heel			R.Heel			L.Knee.Lat			R.Knee.Lat			L.Knee.Med			R.Knee.Med			L.Thigh.Upper			R.Thigh.Upper			L.ASIS			R.ASIS			V.Sacral			L.Acromium			R.Acromium			C7			L.Elbow			R.Elbow			L.Wrist.Lat			R.Wrist.Lat
		X1	Y1	Z1	X2	Y2	Z2	X3	Y3	Z3	X4	Y4	Z4	X5	Y5	Z5	X6	Y6	Z6	X7	Y7	Z7	X8	Y8	Z8	X9	Y9	Z9	X10	Y10	Z10	X11	Y11	Z11	X12	Y12	Z12	X13	Y13	Z13	X14	Y14	Z14	X15	Y15	Z15	X16	Y16	Z16	X17	Y17	Z17	X18	Y18	Z18	X19	Y19	Z19	X20	Y20	Z20	X21	Y21	Z21	X22	Y22	Z22	X23	Y23	Z23	X24	Y24	Z24

246	0.98	0.0024274183	-0.0083883656	-0.11128713	0.65455908	0.12373902	0.05845043	-0.12002254	0.037423004	-0.14300326	0.51161161	0.11096546	0.081323781	-0.10261459	0.060771084	-0.05889891	0.53498786	0.14161209	-0.00035086889	-0.19283605	0.030453954	-0.10068441	0.47492026	0.074123641	0.030407117	0.11114476	0.33997823	-0.18436909	0.43105661	0.50574146	0.080850213	0.12102296	0.32322175	-0.065384967	0.45086061	0.5112802	-0.044132926	0.09843384	0.73328982	-0.25588819	0.1455186	0.77362801	0.12787067	0.16904435	0.84204158	-0.20351147	0.20575562	0.85680113	0.045766071	-0.012545401	0.87132668	-0.055027104	0.19845524	1.320828	-0.22435734	0.14702678	1.3395985	0.075284255	0.097179872	1.3553314	-0.092045058	0.17770253	1.0510304	-0.44001324	-0.046985393	1.1038974	0.23267283	0.40149377	0.98871877	-0.53601702	-0.052128385	1.0414999	0.47228814
247	0.984	0.0023951768	-0.0083745743	-0.11123289	0.66999351	0.12455748	0.054594261	-0.11978737	0.037988685	-0.14286215	0.52750249	0.11041498	0.080168533	-0.10230869	0.061268311	-0.058760804	0.54922096	0.14195136	-0.0015383391	-0.19262089	0.031340503	-0.10052963	0.49032491	0.07364543	0.029539217	0.11152921	0.34045413	-0.18421143	0.43755315	0.5038448	0.081205231	0.12158693	0.32349814	-0.065321064	0.45713688	0.50940779	-0.043928431	0.10254212	0.73399314	-0.25478515	0.15297355	0.77464418	0.12805487	0.17493898	0.84248046	-0.20349131	0.21371231	0.85786885	0.045717179	-0.0056358147	0.87213865	-0.05390236	0.20453409	1.3220227	-0.22400889	0.15317619	1.3405284	0.075552351	0.10348749	1.356265	-0.09173765	0.18559959	1.0524155	-0.43999784	-0.042934983	1.105763	0.23163812	0.41061622	0.9924923	-0.53504174	-0.049538602	1.0437614	0.47156186
248	0.988	0.0023734457	-0.0083575915	-0.1111957	0.6844867	0.12606768	0.050715118	-0.11950189	0.038623265	-0.14272136	0.54266296	0.10986631	0.079045871	-0.10198868	0.061830474	-0.058652217	0.56268614	0.14224188	-0.0027227539	-0.19236644	0.032321148	-0.10038802	0.50521178	0.07295514	0.028736411	0.11178357	0.34107495	-0.18406073	0.44399994	0.50191246	0.08161501	0.12208321	0.32389615	-0.065251957	0.46338742	0.50748623	-0.043703416	0.10693853	0.73489666	-0.25384588	0.16057054	0.77569013	0.12817165	0.18094561	0.84300085	-0.2034306	0.22176995	0.85903303	0.04555672	0.0018681949	0.87267304	-0.053060611	0.210579	1.3232891	-0.22365368	0.15928822	1.3415468	0.075850719	0.1098036	1.3572591	-0.091396523	0.19341335	1.0538066	-0.43989841	-0.038862117	1.1076057	0.23061051	0.41963947	0.99621806	-0.53391706	-0.046811261	1.0458172	0.47072334
249	0.992	0.002357527	-0.0083366992	-0.11116228	0.69805765	0.12830297	0.046926272	-0.11918583	0.039357225	-0.14258995	0.55696009	0.1093201	0.077973615	-0.1016343	0.062465982	-0.058564354	0.57532796	0.14241005	-0.00389111	-0.19206521	0.033407319	-0.10025833	0.51960705	0.071983443	0.027977901	0.11190287	0.34183766	-0.18394965	0.45042174	0.49993995	0.082054003	0.12252896	0.3244258	-0.065180165	0.46960127	0.50553323	-0.043457105	0.11157789	0.73595673	-0.25296795	0.16833119	0.77678112	0.12822936	0.18707209	0.8436099	-0.20333008	0.22992593	0.8602955	0.045288668	0.010151484	0.87284096	-0.052631133	0.21659562	1.3246252	-0.223285	0.16536817	1.3426432	0.076176263	0.11611929	1.3583103	-0.091015892	0.2011435	1.0551978	-0.43971164	-0.034713195	1.1094204	0.22962234	0.42857816	0.99989173	-0.53262294	-0.043944094	1.0476566	0.46977642
250	0.996	0.0023443369	-0.0083087802	-0.11112726	0.71084249	0.13107091	0.043344109	-0.11885737	0.040193706	-0.1424759	0.57043191	0.10875007	0.076917383	-0.10122154	0.063187524	-0.058489091	0.58716549	0.14240495	-0.005027154	-0.19171406	0.034613917	-0.10014445	0.53350912	0.070747177	0.027229329	0.1118998	0.34274855	-0.1839094	0.45682134	0.4979187	0.082495468	0.12293168	0.32509274	-0.065114997	0.47578367	0.5035589	-0.043191696	0.11645168	0.73713268	-0.25211202	0.17626673	0.77793166	0.12824127	0.19330711	0.84430661	-0.20320597	0.23817201	0.86166275	0.044917656	0.018906281	0.87284958	-0.052419442	0.22258991	1.326027	-0.22289429	0.17142875	1.3438062	0.076526861	0.12242414	1.3594131	-0.090602459	0.20878841	1.0565874	-0.43943238	-0.030479184	1.1112299	0.22864384	0.43743126	1.0035004	-0.53116359	-0.040938434	1.0492696	0.4687274
